#!OML:ASF I:\salsa\salsa 7_09\Patient 1\Session 1\dancerfemale.ASF
:FULLY-SPECIFIED
:DEGREES
1771
root 8.60151 15.5786 -0.756103 -717.361 581.269 366.777
lowerback 0.229155 7.67412 11.5558
upperback -6.92616 10.4254 -0.735941
thorax -5.31098 4.43983 -7.41902
lowerneck 0.796956 9.3618 -1.84752
upperneck 5.49811 12.1194 7.86147
head 0.962407 6.09621 2.81174
rclavicle 9.35973e-014 3.8881e-014
rhumerus 72.083 8.60734 -10.5703
rradius 89.4055
rwrist 27.0864
rhand -22.9353 431.915
rfingers 7.12502
rthumb 3.50555 401.964
lclavicle 9.35973e-014 3.8881e-014
lhumerus -37.9588 -23.4036 106.504
lradius 108.663
lwrist 43.6583
lhand -36.9793 59.7264
lfingers 7.12502
lthumb -10.0547 89.4662
rfemur -16.4342 -17.5658 35.3344
rtibia 30.0576
rfoot -36.8609 7.61413
rtoes 9.66483
lfemur -39.7929 2.21628 -9.67578
ltibia 78.9504
lfoot -16.2807 14.6369
ltoes -29.7532
1772
root 8.81882 15.5053 -0.716125 -719.385 586.86 368.451
lowerback -0.0110452 7.20151 10.9119
upperback -6.43588 9.76299 0.324557
thorax -5.05271 4.20938 -5.92143
lowerneck 0.445137 8.29264 -2.21362
upperneck 5.4194 10.7163 7.577
head 1.06622 5.39623 2.81623
rclavicle 2.49475e-014 2.28602e-014
rhumerus 69.9885 11.7572 -7.41546
rradius 90.9124
rwrist 25.4836
rhand -22.8006 430.384
rfingers 7.12502
rthumb 3.63568 400.436
lclavicle 2.49475e-014 2.28602e-014
lhumerus -38.9136 -23.3226 107.17
lradius 107.231
lwrist 43.6268
lhand -37.4587 62.5993
lfingers 7.12502
lthumb -10.5171 267.684
rfemur -17.591 -20.4122 37.292
rtibia 30.8679
rfoot -36.9185 5.44304
rtoes 10.99
lfemur -39.2727 2.53062 -9.3107
ltibia 81.4563
lfoot -15.4054 15.7176
ltoes -26.4211
1773
root 9.04287 15.453 -0.695005 -720.475 592.466 368.535
lowerback 0.0538494 6.61559 8.63537
upperback -5.90064 8.95504 1.2426
thorax -5.10298 3.96918 -3.76075
lowerneck 0.176925 7.18196 -2.73289
upperneck 5.13933 9.27963 7.19568
head 1.09269 4.67211 2.79835
rclavicle 1.04263e-013 -3.97569e-016
rhumerus 67.8848 15.0712 -4.7226
rradius 92.4655
rwrist 23.8391
rhand -22.059 428.724
rfingers 7.12502
rthumb 4.35177 398.789
lclavicle 1.04263e-013 -3.97569e-016
lhumerus -39.1299 -23.1839 107.734
lradius 106.259
lwrist 43.9839
lhand -38.2312 60.2021
lfingers 7.12502
lthumb -11.2622 89.8798
rfemur -18.6701 -22.1069 37.8309
rtibia 31.542
rfoot -36.7008 2.21399
rtoes 13.181
lfemur -38.1463 2.70471 -10.0996
ltibia 83.0241
lfoot -13.4382 16.8739
ltoes -19.6286
1774
root 9.24777 15.426 -0.695655 -721.526 597.605 368.994
lowerback -0.0366148 6.2129 6.56094
upperback -5.6461 8.38214 2.0916
thorax -5.24566 3.81012 -1.76702
lowerneck 0.435127 5.96258 -3.12458
upperneck 4.70116 7.69133 6.79006
head 0.9939 3.86217 2.72029
rclavicle -1.21607e-013 -5.24792e-014
rhumerus 65.4505 18.8298 -2.90394
rradius 93.9939
rwrist 22.2918
rhand -21.2752 426.905
rfingers 7.12502
rthumb 5.10862 396.987
lclavicle -1.21607e-013 -5.24792e-014
lhumerus -39.0112 -23.1777 108.101
lradius 104.849
lwrist 43.462
lhand -38.7268 60.7755
lfingers 7.12502
lthumb -11.7402 269.574
rfemur -19.8364 -22.5908 38.5061
rtibia 31.9967
rfoot -36.5927 -1.8063
rtoes 15.8013
lfemur -36.8249 3.23551 -10.5064
ltibia 83.9198
lfoot -12.3988 17.3157
ltoes -17.023
1775
root 9.42034 15.4246 -0.706895 -722.281 602.275 369.405
lowerback -0.401369 5.98098 4.65015
upperback -5.53059 8.02131 2.75673
thorax -5.28555 3.74391 -0.0187227
lowerneck 0.895494 4.71453 -3.52276
upperneck 4.25183 6.04405 6.61262
head 0.852823 3.02191 2.71608
rclavicle -1.799e-014 7.95139e-015
rhumerus 62.6315 22.7756 -1.91616
rradius 95.3704
rwrist 20.5841
rhand -20.393 425.196
rfingers 7.12502
rthumb 5.9604 395.3
lclavicle -1.799e-014 7.95139e-015
lhumerus -38.5868 -23.482 108.497
lradius 103.484
lwrist 43.1323
lhand -39.2906 61.0796
lfingers 7.12502
lthumb -12.2839 269.301
rfemur -20.8159 -22.1827 38.8744
rtibia 32.1105
rfoot -36.4914 -6.20685
rtoes 18.3495
lfemur -35.1994 4.11398 -10.8787
ltibia 84.1538
lfoot -12.5429 16.8288
ltoes -18.9753
1776
root 9.59145 15.4318 -0.709163 -723.828 606.921 371.056
lowerback -0.787114 5.73998 3.38359
upperback -5.60021 7.67002 3.37944
thorax -5.40091 3.64338 1.34371
lowerneck 1.35926 3.49312 -4.01543
upperneck 3.75155 4.4225 6.63099
head 0.691588 2.19566 2.80124
rclavicle 1.62506e-013 4.21423e-014
rhumerus 59.4893 26.7385 -1.88859
rradius 96.551
rwrist 18.6177
rhand -18.9879 423.36
rfingers 7.12502
rthumb 7.31681 393.506
lclavicle 1.62506e-013 4.21423e-014
lhumerus -37.7958 -24.0639 108.942
lradius 102.288
lwrist 42.9468
lhand -40.3826 60.9619
lfingers 7.12502
lthumb -13.3366 269.485
rfemur -22.1219 -22.3338 39.7565
rtibia 31.8234
rfoot -36.063 -9.87595
rtoes 20.7375
lfemur -34.0838 4.81348 -10.691
ltibia 83.9432
lfoot -12.4636 16.1177
ltoes -21.4358
1777
root 9.76073 15.4392 -0.697422 -728.102 611.488 375.81
lowerback -1.17418 5.57558 3.15704
upperback -5.86056 7.43901 3.99316
thorax -5.57297 3.54545 2.13265
lowerneck 1.97655 2.17575 -4.33103
upperneck 3.12979 2.67089 6.54564
head 0.485855 1.30384 2.82462
rclavicle 4.88016e-014 1.51076e-014
rhumerus 55.768 30.6208 -2.71972
rradius 97.5595
rwrist 16.5112
rhand -17.16 421.309
rfingers 7.12502
rthumb 9.08094 391.524
lclavicle 4.88016e-014 1.51076e-014
lhumerus -36.8354 -25.0389 109.618
lradius 101.124
lwrist 42.6305
lhand -40.8385 61.2312
lfingers 7.12502
lthumb -13.776 269.245
rfemur -23.876 -23.0474 41.4766
rtibia 31.5746
rfoot -35.5638 -12.9279
rtoes 22.1304
lfemur -33.5198 5.34054 -9.63684
ltibia 83.3016
lfoot -12.1301 14.9969
ltoes -23.9321
1778
root 9.90247 15.4943 -0.691058 -729.629 615.798 377.052
lowerback -1.11778 5.46311 1.72133
upperback -5.95097 7.29802 4.1716
thorax -5.90543 3.56059 3.08974
lowerneck 2.74663 0.848972 -4.79122
upperneck 2.5014 0.891967 6.47383
head 0.257164 0.396182 2.89043
rclavicle -2.68359e-015 -2.38542e-015
rhumerus 51.4613 34.3966 -4.49536
rradius 98.6712
rwrist 13.9224
rhand -14.7809 419.078
rfingers 7.12502
rthumb 11.3761 389.406
lclavicle -2.68359e-015 -2.38542e-015
lhumerus -35.7283 -25.9216 110.391
lradius 99.9672
lwrist 42.7111
lhand -40.7743 61.3835
lfingers 7.12502
lthumb -13.7141 269.088
rfemur -24.9218 -24.4826 41.185
rtibia 31.3974
rfoot -35.3068 -14.9985
rtoes 24.1697
lfemur -31.6058 5.61535 -10.413
ltibia 81.5723
lfoot -12.36 14.3668
ltoes -28.3484
1779
root 10.0174 15.5506 -0.677628 -723.387 619.868 370.006
lowerback -0.732627 5.35022 -0.955216
upperback -5.83463 7.13851 3.92241
thorax -6.30249 3.63737 4.26684
lowerneck 3.368 -0.37622 -5.56913
upperneck 2.06617 -0.775433 6.57154
head 0.117243 -0.453106 3.08606
rclavicle 1.39149e-015 3.49861e-014
rhumerus 46.8396 37.7848 -6.95633
rradius 99.8784
rwrist 11.0601
rhand -11.9095 416.792
rfingers 7.12502
rthumb 14.1442 387.293
lclavicle 1.39149e-015 3.49861e-014
lhumerus -34.3273 -26.3874 111.075
lradius 98.6609
lwrist 42.8843
lhand -41.1181 61.3094
lfingers 7.12502
lthumb -14.0454 269.185
rfemur -25.3157 -25.7958 38.7265
rtibia 31.2624
rfoot -35.2402 -16.8176
rtoes 27.1337
lfemur -28.6013 5.62896 -13.0784
ltibia 79.0609
lfoot -13.1734 13.7687
ltoes -34.2706
